<?xml version="1.0" standalone="no"?>
<!DOCTYPE svg PUBLIC "-//W3C//DTD SVG 20010904//EN"
 "http://www.w3.org/TR/2001/REC-SVG-20010904/DTD/svg10.dtd">
<svg version="1.0" xmlns="http://www.w3.org/2000/svg"
 width="160.000000pt" height="255.000000pt" viewBox="0 0 160.000000 255.000000"
 preserveAspectRatio="xMidYMid meet">

<g transform="translate(0.000000,255.000000) scale(0.100000,-0.100000)"
fill="#000000" stroke="none">
<path d="M230 2366 c0 -8 5 -18 10 -21 6 -3 10 1 10 9 0 8 -4 18 -10 21 -5 3
-10 -1 -10 -9z"/>
<path d="M282 2360 c0 -14 2 -19 5 -12 2 6 2 18 0 25 -3 6 -5 1 -5 -13z"/>
<path d="M317 2373 c-10 -9 -9 -43 1 -43 4 0 8 11 8 25 0 28 0 28 -9 18z"/>
<path d="M357 2367 c-3 -8 -1 -20 4 -28 6 -10 9 -7 9 14 0 29 -5 35 -13 14z"/>
<path d="M437 2360 c-3 -11 -1 -20 4 -20 5 0 9 9 9 20 0 11 -2 20 -4 20 -2 0
-6 -9 -9 -20z"/>
<path d="M540 2356 c0 -15 4 -25 9 -22 10 7 9 31 -2 42 -4 4 -7 -5 -7 -20z"/>
<path d="M580 2361 c0 -12 5 -21 10 -21 6 0 10 6 10 14 0 8 -4 18 -10 21 -5 3
-10 -3 -10 -14z"/>
<path d="M736 2372 c2 -3 -1 -11 -7 -18 -7 -8 -7 -14 1 -19 13 -8 26 24 13 34
-5 5 -8 6 -7 3z"/>
<path d="M771 2364 c0 -11 3 -14 6 -6 3 7 2 16 -1 19 -3 4 -6 -2 -5 -13z"/>
<path d="M812 2356 c1 -14 5 -23 9 -20 7 4 0 44 -7 44 -2 0 -3 -11 -2 -24z"/>
<path d="M852 2355 c0 -16 2 -22 5 -12 2 9 2 23 0 30 -3 6 -5 -1 -5 -18z"/>
<path d="M887 2373 c-3 -5 -1 -17 4 -28 6 -17 7 -16 6 8 -1 28 -3 32 -10 20z"/>
<path d="M923 2364 c-3 -8 -1 -20 4 -25 5 -5 9 1 9 16 0 29 -4 32 -13 9z"/>
<path d="M1110 2356 c0 -22 3 -27 11 -19 8 8 8 16 0 30 -9 16 -10 14 -11 -11z"/>
<path d="M1177 2360 c-3 -11 -1 -20 4 -20 5 0 9 9 9 20 0 11 -2 20 -4 20 -2 0
-6 -9 -9 -20z"/>
<path d="M1262 2360 c0 -14 2 -19 5 -12 2 6 2 18 0 25 -3 6 -5 1 -5 -13z"/>
<path d="M1334 2369 c-5 -8 -3 -9 6 -4 10 6 12 3 8 -13 -4 -12 -2 -20 3 -16
12 7 12 31 0 39 -5 3 -13 0 -17 -6z"/>
<path d="M1380 2366 c0 -8 5 -18 10 -21 6 -3 10 1 10 9 0 8 -4 18 -10 21 -5 3
-10 -1 -10 -9z"/>
<path d="M201 2354 c0 -11 3 -14 6 -6 3 7 2 16 -1 19 -3 4 -6 -2 -5 -13z"/>
<path d="M390 2361 c0 -6 5 -13 10 -16 6 -3 10 1 10 9 0 9 -4 16 -10 16 -5 0
-10 -4 -10 -9z"/>
<path d="M511 2354 c0 -11 3 -14 6 -6 3 7 2 16 -1 19 -3 4 -6 -2 -5 -13z"/>
<path d="M626 2355 c-3 -8 -1 -15 4 -15 6 0 10 7 10 15 0 8 -2 15 -4 15 -2 0
-6 -7 -10 -15z"/>
<path d="M660 2350 c0 -11 4 -20 9 -20 5 0 7 9 4 20 -3 11 -7 20 -9 20 -2 0
-4 -9 -4 -20z"/>
<path d="M1060 2356 c0 -9 7 -16 16 -16 17 0 14 22 -4 28 -7 2 -12 -3 -12 -12z"/>
<path d="M1210 2358 c0 -9 5 -20 10 -23 13 -8 13 5 0 25 -8 13 -10 13 -10 -2z"/>
<path d="M1290 2355 c0 -6 7 -12 15 -12 8 0 15 6 15 12 0 6 -7 12 -15 12 -8 0
-15 -6 -15 -12z"/>
<path d="M960 2340 c0 -5 5 -10 11 -10 5 0 7 5 4 10 -3 6 -8 10 -11 10 -2 0
-4 -4 -4 -10z"/>
<path d="M470 2078 c0 -67 4 -100 15 -114 13 -17 14 -14 15 41 l1 60 18 -43
c16 -40 35 -61 54 -62 4 0 7 47 7 105 0 85 -3 105 -15 105 -11 0 -15 -17 -17
-72 l-3 -73 -25 69 c-37 102 -50 98 -50 -16z"/>
<path d="M680 2150 c-17 -17 -20 -33 -20 -100 0 -67 3 -83 20 -100 11 -11 27
-20 35 -20 8 0 24 9 35 20 28 28 30 178 2 203 -25 22 -48 21 -72 -3z m55 -100
c0 -70 -3 -85 -16 -88 -22 -4 -26 19 -21 106 4 61 7 72 21 70 13 -3 16 -18 16
-88z"/>
<path d="M857 2164 c-11 -11 -9 -224 3 -224 6 0 13 -1 18 -2 4 -2 9 17 13 42
l5 45 22 -47 c33 -74 59 -60 27 15 -13 31 -13 36 0 47 18 15 20 93 3 108 -17
14 -81 25 -91 16z m66 -46 c13 -20 0 -68 -18 -68 -11 0 -15 12 -15 46 0 46 13
55 33 22z"/>
<path d="M1065 2147 c-6 -16 -35 -188 -35 -204 0 -19 27 -4 33 18 7 26 47 26
47 0 0 -23 11 -33 27 -23 8 5 7 27 -3 77 -8 39 -17 84 -20 102 -6 32 -41 53
-49 30z m34 -114 c1 -24 -3 -33 -15 -33 -13 0 -15 7 -10 31 3 17 6 41 7 53 0
20 1 21 9 1 5 -11 9 -35 9 -52z"/>
<path d="M207 1863 c-4 -3 -7 -53 -7 -110 0 -96 1 -103 20 -103 17 0 20 7 20
41 0 33 3 40 18 37 13 -3 17 -14 18 -48 1 -71 44 -65 44 7 0 18 -6 38 -13 45
-11 10 -11 16 1 38 24 41 9 77 -36 89 -43 13 -56 13 -65 4z m63 -37 c16 -20 9
-60 -12 -64 -15 -3 -18 4 -18 37 0 43 9 51 30 27z"/>
<path d="M425 1848 c-3 -13 -14 -69 -24 -125 -18 -101 -18 -103 0 -103 12 0
19 7 19 20 0 15 7 20 26 20 17 0 28 -6 31 -20 6 -24 33 -27 33 -3 0 28 -30
187 -40 211 -5 12 -16 22 -25 22 -8 0 -17 -10 -20 -22z m39 -115 c6 -39 4 -43
-15 -43 -17 0 -20 4 -15 23 3 12 6 38 6 57 1 44 15 22 24 -37z"/>
<path d="M590 1746 c0 -105 2 -126 15 -126 11 0 15 12 15 45 0 25 4 45 9 45 4
0 16 -20 25 -45 13 -32 23 -45 37 -45 18 0 19 2 3 38 -9 20 -18 42 -20 48 -3
6 2 17 11 24 18 15 20 89 3 113 -7 9 -32 19 -55 23 l-43 7 0 -127z m68 82 c25
-25 11 -88 -19 -88 -16 0 -19 7 -19 43 0 56 12 71 38 45z"/>
<path d="M789 1866 c-2 -2 -3 -59 -1 -125 3 -97 6 -121 18 -121 10 0 14 12 14
45 0 57 14 58 32 3 10 -31 21 -44 36 -46 l21 -3 -20 45 c-18 42 -19 48 -5 68
17 23 21 84 8 105 -13 21 -89 42 -103 29z m69 -79 c3 -42 1 -47 -17 -47 -18 0
-21 6 -21 51 0 43 3 50 18 47 13 -2 18 -15 20 -51z"/>
<path d="M987 1864 c-4 -4 -7 -61 -7 -126 l0 -118 50 0 c28 0 50 5 50 10 0 6
-13 10 -30 10 -29 0 -30 2 -30 45 0 38 3 45 20 45 11 0 20 7 20 15 0 8 -9 15
-21 15 -17 0 -20 5 -17 38 3 32 7 37 31 40 16 2 27 8 24 15 -4 13 -79 22 -90
11z"/>
<path d="M1137 1864 c-13 -13 -7 -24 13 -24 19 0 20 -7 20 -110 0 -103 1 -110
20 -110 19 0 20 7 20 106 0 98 1 106 20 111 37 10 15 28 -36 31 -27 2 -53 0
-57 -4z"/>
<path d="M1307 1863 c-13 -12 -7 -22 16 -25 21 -3 22 -9 28 -103 3 -55 6 -92
7 -82 1 9 7 17 12 17 6 0 10 34 10 81 0 72 2 81 20 86 11 3 20 12 20 19 0 10
-15 14 -53 14 -30 0 -57 -3 -60 -7z"/>
<path d="M590 1516 c0 -2 7 -7 16 -10 8 -3 12 -2 9 4 -6 10 -25 14 -25 6z"/>
<path d="M679 1457 c7 -10 10 -17 6 -17 -5 0 -1 -8 7 -17 31 -37 27 -41 -18
-16 -44 25 -46 25 -35 5 7 -12 20 -22 31 -22 13 0 18 -5 14 -15 -4 -10 0 -15
11 -15 29 0 55 -19 48 -36 -5 -13 -16 -15 -62 -10 -37 4 -49 3 -36 -3 16 -8
11 -10 -25 -11 l-45 -1 41 -13 c22 -7 77 -16 122 -20 92 -7 91 -10 53 77 -12
27 -18 54 -14 59 3 6 1 8 -4 5 -6 -4 -19 3 -29 14 -10 12 -32 28 -49 37 -28
14 -29 14 -16 -1z"/>
<path d="M790 1380 c0 -5 7 -28 16 -50 13 -33 21 -40 43 -40 58 0 63 54 6 64
-18 4 -36 13 -39 21 -6 17 -26 20 -26 5z"/>
<path d="M400 1355 c0 -3 9 -14 20 -25 13 -13 20 -15 20 -7 0 7 -5 18 -12 25
-12 12 -28 16 -28 7z"/>
<path d="M578 1323 c7 -3 16 -2 19 1 4 3 -2 6 -13 5 -11 0 -14 -3 -6 -6z"/>
<path d="M584 1251 c16 -18 17 -25 7 -44 -7 -13 -11 -30 -9 -38 1 -8 -7 -27
-19 -43 l-22 -28 -12 26 c-13 29 -17 30 -39 16 -9 -5 -19 -5 -26 1 -8 6 -13 3
-17 -12 -5 -17 -11 -20 -32 -17 -19 4 -29 0 -36 -14 -10 -18 -13 -15 -35 32
-13 29 -24 58 -24 66 0 8 -7 14 -16 14 -12 0 -15 -6 -11 -21 5 -20 5 -20 -13
-4 -18 16 -20 16 -26 1 -3 -9 -12 -16 -20 -16 -8 0 -14 -6 -14 -12 -1 -8 -6
-6 -14 5 -9 12 -16 14 -21 8 -7 -12 -26 -15 -23 -3 1 4 -2 19 -6 35 -8 27 -29
34 -55 18 -11 -7 -10 -11 5 -20 17 -9 17 -10 1 -11 -9 0 -17 -3 -16 -7 2 -16
-14 -53 -23 -53 -5 0 -6 -4 -3 -10 3 -5 2 -10 -4 -10 -10 0 -26 38 -23 56 1 6
-7 19 -18 29 l-20 18 0 -606 0 -607 800 0 800 0 -2 403 c-3 389 -4 402 -22
399 -11 -2 -26 -13 -36 -24 -12 -16 -31 -21 -80 -24 -94 -7 -91 -4 -88 -81 3
-57 6 -68 22 -71 10 -2 22 2 27 10 14 22 10 75 -6 82 -33 12 -15 34 33 38 58
6 85 -4 55 -20 -16 -9 -20 -22 -21 -78 -1 -37 -5 -70 -8 -73 -2 -3 -13 0 -24
7 -12 7 -21 8 -25 2 -3 -6 -19 -10 -35 -10 -49 0 -67 36 -76 148 -4 53 -9 89
-12 80 -2 -10 -9 -18 -17 -18 -18 0 -25 -33 -25 -128 0 -79 -1 -83 -21 -80
-17 2 -29 23 -58 102 l-36 98 -3 -101 c-2 -93 -4 -101 -22 -101 -19 0 -20 7
-20 133 0 134 -6 181 -20 172 -9 -6 -80 64 -80 78 0 5 -5 5 -12 1 -7 -5 -9 -2
-6 7 7 19 -17 53 -31 44 -6 -3 -11 -1 -11 4 0 6 -7 11 -15 11 -9 0 -18 6 -21
14 -3 8 -12 12 -19 10 -7 -3 -16 0 -20 5 -3 6 -11 9 -16 6 -12 -8 -11 -3 1 31
9 21 7 29 -7 40 -16 13 -15 14 12 8 24 -5 28 -4 18 6 -15 16 -70 23 -78 10 -3
-6 2 -10 12 -11 10 0 13 -3 7 -5 -7 -3 -10 -13 -7 -24 6 -22 -29 -44 -58 -37
-10 3 -24 -2 -30 -10 -11 -12 -16 -10 -37 12 -13 15 -21 33 -18 41 3 9 1 12
-4 9 -6 -3 -10 5 -10 19 0 29 -17 36 -22 9 -3 -15 -4 -15 -21 1 -22 23 -14 36
24 36 18 0 28 5 27 13 -2 8 9 11 39 9 35 -3 41 0 39 15 -3 18 -44 34 -126 48
l-45 7 19 -21z m456 -527 l0 -164 -25 0 -25 0 0 149 c0 82 -3 156 -6 164 -4
11 2 17 18 19 13 2 26 2 31 0 4 -2 7 -77 7 -168z m-780 146 c0 -15 -7 -20 -25
-20 l-25 0 0 -145 0 -145 -25 0 -25 0 0 145 0 145 -25 0 c-18 0 -25 5 -25 20
0 18 7 20 75 20 68 0 75 -2 75 -20z m92 -47 c3 -66 4 -68 31 -71 l27 -3 0 70
c0 71 0 71 28 71 l27 0 1 -165 2 -165 -29 0 -29 0 0 75 0 75 -30 0 -30 0 0
-75 c0 -73 -1 -75 -25 -75 l-25 0 0 165 0 165 25 0 c23 0 24 -3 27 -67z m298
47 c0 -16 -7 -20 -35 -20 l-35 0 0 -50 c0 -49 1 -50 29 -50 24 0 28 -3 24 -20
-3 -13 -14 -20 -29 -20 -22 0 -24 -4 -24 -55 l0 -55 35 0 c28 0 35 -4 35 -20
0 -18 -7 -20 -60 -20 l-60 0 0 165 0 165 60 0 c53 0 60 -2 60 -20z m182 -17
c1 -21 1 -51 -1 -68 -2 -40 11 -24 39 48 18 47 26 57 46 57 13 0 24 -2 24 -4
0 -2 -13 -36 -30 -75 l-29 -73 34 -86 c19 -47 35 -88 35 -90 0 -2 -12 -2 -27
0 -23 3 -31 12 -53 68 l-25 65 -3 -67 c-3 -68 -3 -68 -32 -68 l-30 0 0 165 0
165 25 0 c22 0 25 -5 27 -37z m728 -114 c0 -5 -4 -9 -10 -9 -5 0 -10 7 -10 16
0 8 5 12 10 9 6 -3 10 -10 10 -16z m-1307 -271 c14 -17 17 -40 17 -130 0 -102
-1 -110 -25 -133 -29 -30 -64 -32 -96 -6 -22 18 -24 28 -27 124 -3 81 0 112
12 135 24 46 83 51 119 10z m1038 0 c15 -28 7 -72 -13 -76 -14 -3 -18 3 -18
28 0 19 -6 33 -16 37 -30 11 -44 -25 -44 -111 0 -105 7 -128 34 -124 17 2 22
11 24 46 2 25 -1 42 -7 42 -6 0 -11 7 -11 15 0 10 11 15 35 15 l35 0 0 -80 c0
-62 -3 -80 -14 -80 -8 0 -16 5 -18 10 -2 7 -15 6 -36 -2 -30 -11 -34 -10 -59
14 -25 25 -26 30 -25 134 2 116 13 150 54 156 38 6 68 -3 79 -24z m182 0 c22
-26 19 -72 -5 -76 -13 -3 -18 3 -18 21 0 29 -23 52 -45 43 -27 -10 -16 -41 35
-105 38 -47 50 -71 50 -96 0 -81 -112 -104 -140 -29 -12 30 -3 54 20 54 13 0
20 -9 22 -27 2 -20 9 -29 26 -31 34 -5 30 48 -6 90 -48 56 -62 81 -62 113 0
35 7 47 35 63 26 16 66 6 88 -20z m-1033 7 c0 -10 -11 -15 -35 -15 l-35 0 0
-50 c0 -49 1 -50 30 -50 20 0 30 -5 30 -15 0 -10 -10 -15 -30 -15 l-30 0 0
-76 c0 -72 -1 -75 -22 -72 -23 3 -23 6 -26 156 l-3 152 61 0 c47 0 60 -3 60
-15z m249 -11 c18 -23 21 -41 21 -130 0 -90 -3 -107 -20 -124 -23 -23 -56 -33
-96 -28 l-29 3 -3 153 -3 152 55 0 c47 0 57 -4 75 -26z m191 8 c31 -25 36 -87
11 -136 -20 -38 -20 -38 0 -87 24 -63 24 -71 -3 -67 -17 2 -27 16 -41 61 -11
31 -23 57 -28 57 -4 0 -9 -26 -11 -57 -3 -50 -6 -58 -23 -58 -19 0 -20 8 -23
153 l-3 152 50 0 c32 0 56 -6 71 -18z m120 -94 c0 -131 5 -158 30 -158 26 0
30 19 30 151 0 112 1 119 20 119 19 0 20 -7 20 -135 0 -122 -2 -137 -20 -155
-26 -26 -74 -26 -100 0 -18 18 -20 33 -20 155 0 128 1 135 20 135 19 0 20 -7
20 -112z"/>
<path d="M175 448 c-3 -8 -4 -61 -3 -119 3 -96 4 -104 23 -104 19 0 20 7 20
115 0 101 -2 115 -18 118 -9 2 -19 -3 -22 -10z"/>
<path d="M610 339 c0 -118 0 -120 22 -117 27 4 36 31 37 120 1 81 -11 118 -39
118 -19 0 -20 -6 -20 -121z"/>
<path d="M810 395 c0 -57 2 -64 18 -58 25 9 32 23 32 64 0 36 -14 59 -37 59
-9 0 -13 -18 -13 -65z"/>
<path d="M1030 1235 c0 -15 28 -34 60 -40 31 -6 18 18 -19 38 -42 21 -41 21
-41 2z"/>
<path d="M785 1210 c-4 -6 3 -10 14 -10 25 0 27 6 6 13 -8 4 -17 2 -20 -3z"/>
<path d="M874 1185 c27 -8 53 -18 59 -24 8 -8 16 -6 30 7 10 9 21 16 23 15 2
-2 10 -3 17 -3 8 0 8 3 -2 9 -9 6 -22 6 -33 0 -11 -6 -33 -6 -60 1 -64 14 -91
10 -34 -5z"/>
<path d="M692 1164 c11 -11 23 -14 35 -9 17 7 17 8 -2 15 -11 5 -27 9 -35 9
-12 1 -11 -2 2 -15z"/>
<path d="M920 1130 c36 -11 52 -11 45 0 -3 6 -21 10 -38 9 -31 -1 -31 -1 -7
-9z"/>
<path d="M927 1087 c-4 -10 2 -13 19 -9 13 2 24 8 24 13 0 14 -37 10 -43 -4z"/>
<path d="M1150 879 c0 -12 59 -181 65 -187 2 -2 1 31 -2 74 -5 58 -11 83 -26
101 -22 25 -37 30 -37 12z"/>
</g>
</svg>
